<mxfile host="65bd71144e">
    <diagram id="EwcW3jDmVKM2Llpg1M8U" name="Statemachine">
        <mxGraphModel dx="816" dy="1795" grid="1" gridSize="10" guides="1" tooltips="1" connect="1" arrows="1" fold="1" page="1" pageScale="1" pageWidth="827" pageHeight="1169" math="0" shadow="0">
            <root>
                <mxCell id="H8EhPVRGhD9QcGHd6oGn-0"/>
                <mxCell id="H8EhPVRGhD9QcGHd6oGn-1" parent="H8EhPVRGhD9QcGHd6oGn-0"/>
                <mxCell id="H8EhPVRGhD9QcGHd6oGn-2" value="" style="rhombus;whiteSpace=wrap;html=1;" parent="H8EhPVRGhD9QcGHd6oGn-1" vertex="1">
                    <mxGeometry x="100" y="-880" width="120" height="80" as="geometry"/>
                </mxCell>
                <mxCell id="H8EhPVRGhD9QcGHd6oGn-3" value="IsButtonPress" style="text;html=1;strokeColor=none;fillColor=none;align=center;verticalAlign=middle;whiteSpace=wrap;rounded=0;" parent="H8EhPVRGhD9QcGHd6oGn-1" vertex="1">
                    <mxGeometry x="140" y="-850" width="40" height="20" as="geometry"/>
                </mxCell>
                <mxCell id="YizT5a6-7PvZdDWwtdky-0" value="IDLE" style="rounded=0;whiteSpace=wrap;html=1;" parent="H8EhPVRGhD9QcGHd6oGn-1" vertex="1">
                    <mxGeometry x="80" y="-960" width="160" height="40" as="geometry"/>
                </mxCell>
                <mxCell id="YizT5a6-7PvZdDWwtdky-1" value="RUNNING" style="rounded=0;whiteSpace=wrap;html=1;" parent="H8EhPVRGhD9QcGHd6oGn-1" vertex="1">
                    <mxGeometry x="80" y="-760" width="160" height="40" as="geometry"/>
                </mxCell>
            </root>
        </mxGraphModel>
    </diagram>
    <diagram id="XU8DSAcins9WOVZKWN7O" name="UML Classes">
        <mxGraphModel dx="1385" dy="663" grid="1" gridSize="10" guides="1" tooltips="1" connect="1" arrows="1" fold="1" page="1" pageScale="1" pageWidth="827" pageHeight="1169" math="0" shadow="0">
            <root>
                <mxCell id="0"/>
                <mxCell id="1" parent="0"/>
                <mxCell id="kwEn9yOQAXucQRsSc3-B-2" value="Main program" style="swimlane;" parent="1" vertex="1">
                    <mxGeometry x="40" y="40" width="150" height="150" as="geometry"/>
                </mxCell>
                <mxCell id="3IHsDBTsmVG0JVrXr6LS-2" value="void setup(){&lt;br&gt;&lt;span&gt;&#9;&lt;/span&gt;trafficLight.init();&lt;br&gt;&lt;div&gt;&lt;span&gt;}&lt;/span&gt;&lt;/div&gt;&lt;div&gt;&lt;span&gt;&lt;br&gt;&lt;/span&gt;&lt;/div&gt;&lt;div&gt;void loop(){&lt;br&gt;&lt;div&gt;&lt;span&gt;&#9;&lt;/span&gt;trafficLight.update();&lt;br&gt;&lt;/div&gt;&lt;div&gt;}&lt;/div&gt;&lt;/div&gt;" style="text;html=1;align=left;verticalAlign=middle;resizable=0;points=[];autosize=1;strokeColor=none;" parent="kwEn9yOQAXucQRsSc3-B-2" vertex="1">
                    <mxGeometry x="10" y="30" width="120" height="100" as="geometry"/>
                </mxCell>
                <mxCell id="3" value="&lt;p style=&quot;margin: 0px ; margin-top: 4px ; text-align: center&quot;&gt;&lt;b&gt;PushButton&lt;/b&gt;&lt;/p&gt;&lt;hr size=&quot;1&quot;&gt;&lt;p style=&quot;margin: 0px ; margin-left: 4px&quot;&gt;- pin: byte&lt;/p&gt;&lt;hr size=&quot;1&quot;&gt;&lt;p style=&quot;margin: 0px ; margin-left: 4px&quot;&gt;+ PushButton(byte pin)&lt;/p&gt;&lt;p style=&quot;margin: 0px 0px 0px 4px&quot;&gt;+ init()&lt;/p&gt;&lt;p style=&quot;margin: 0px 0px 0px 4px&quot;&gt;+ init(byte defaultState)&lt;/p&gt;&lt;p style=&quot;margin: 0px 0px 0px 4px&quot;&gt;+ isPressed()&lt;/p&gt;&lt;p style=&quot;margin: 0px 0px 0px 4px&quot;&gt;+ off()&lt;/p&gt;&lt;p style=&quot;margin: 0px 0px 0px 4px&quot;&gt;&lt;br&gt;&lt;/p&gt;&lt;p style=&quot;margin: 0px 0px 0px 4px&quot;&gt;&lt;br&gt;&lt;/p&gt;" style="verticalAlign=top;align=left;overflow=fill;fontSize=12;fontFamily=Helvetica;html=1;" parent="1" vertex="1">
                    <mxGeometry x="400" y="320" width="160" height="160" as="geometry"/>
                </mxCell>
                <mxCell id="4" value="&lt;p style=&quot;margin: 0px ; margin-top: 4px ; text-align: center&quot;&gt;&lt;span&gt;Led&lt;/span&gt;&lt;/p&gt;&lt;hr size=&quot;1&quot;&gt;&lt;p style=&quot;margin: 0px ; margin-left: 4px&quot;&gt;- pin: byte&lt;/p&gt;&lt;p style=&quot;margin: 0px ; margin-left: 4px&quot;&gt;- state: bool&lt;br&gt;&lt;/p&gt;&lt;p style=&quot;margin: 0px ; margin-left: 4px&quot;&gt;- isPWM: bool&lt;/p&gt;&lt;hr size=&quot;1&quot;&gt;&lt;p style=&quot;margin: 0px ; margin-left: 4px&quot;&gt;+ Led()&lt;br&gt;&lt;/p&gt;&lt;p style=&quot;margin: 0px ; margin-left: 4px&quot;&gt;+ Led(byte pin)&lt;/p&gt;&lt;p style=&quot;margin: 0px ; margin-left: 4px&quot;&gt;&lt;br&gt;&lt;/p&gt;&lt;p style=&quot;margin: 0px 0px 0px 4px&quot;&gt;+ init()&lt;/p&gt;&lt;p style=&quot;margin: 0px 0px 0px 4px&quot;&gt;+ init(byte defaultState)&lt;/p&gt;&lt;p style=&quot;margin: 0px 0px 0px 4px&quot;&gt;&lt;br&gt;&lt;/p&gt;&lt;p style=&quot;margin: 0px 0px 0px 4px&quot;&gt;+ setBrightness()&lt;/p&gt;&lt;p style=&quot;margin: 0px 0px 0px 4px&quot;&gt;+ on()&lt;/p&gt;&lt;p style=&quot;margin: 0px 0px 0px 4px&quot;&gt;+ off()&lt;/p&gt;&lt;p style=&quot;margin: 0px 0px 0px 4px&quot;&gt;+ toggle()&lt;br&gt;&lt;/p&gt;&lt;p style=&quot;margin: 0px 0px 0px 4px&quot;&gt;- isPoweredOn()&lt;br&gt;&lt;/p&gt;&lt;p style=&quot;margin: 0px 0px 0px 4px&quot;&gt;&lt;br&gt;&lt;/p&gt;&lt;p style=&quot;margin: 0px 0px 0px 4px&quot;&gt;&lt;br&gt;&lt;/p&gt;" style="verticalAlign=top;align=left;overflow=fill;fontSize=12;fontFamily=Helvetica;html=1;fontStyle=1" parent="1" vertex="1">
                    <mxGeometry x="80" y="560" width="230" height="230" as="geometry"/>
                </mxCell>
                <mxCell id="5" value="&lt;p style=&quot;margin: 0px ; margin-top: 4px ; text-align: center&quot;&gt;&lt;span&gt;LedBlinker&lt;/span&gt;&lt;/p&gt;&lt;hr size=&quot;1&quot;&gt;&lt;p style=&quot;margin: 0px ; margin-left: 4px&quot;&gt;- led: Led&lt;/p&gt;&lt;p style=&quot;margin: 0px ; margin-left: 4px&quot;&gt;- lastTimeBlinked: unsigned long&lt;br&gt;&lt;/p&gt;&lt;p style=&quot;margin: 0px ; margin-left: 4px&quot;&gt;- blinkDelay: unsigned long&lt;br&gt;&lt;/p&gt;&lt;hr size=&quot;1&quot;&gt;&lt;p style=&quot;margin: 0px ; margin-left: 4px&quot;&gt;+ LedBlinker()&lt;br&gt;&lt;/p&gt;&lt;p style=&quot;margin: 0px ; margin-left: 4px&quot;&gt;+ LedBlinker(Led &amp;amp;led)&lt;/p&gt;&lt;p style=&quot;margin: 0px ; margin-left: 4px&quot;&gt;+ LedBlinker(Led &amp;amp;led, unsigned long blinkDelay)&lt;/p&gt;&lt;p style=&quot;margin: 0px ; margin-left: 4px&quot;&gt;&lt;span&gt;+ initLed()&lt;/span&gt;&lt;br&gt;&lt;/p&gt;&lt;p style=&quot;margin: 0px 0px 0px 4px&quot;&gt;&lt;span&gt;+getBlinkDelay()&lt;/span&gt;&lt;br&gt;&lt;/p&gt;&lt;p style=&quot;margin: 0px 0px 0px 4px&quot;&gt;+setBlinkDelay()&lt;br&gt;&lt;/p&gt;&lt;p style=&quot;margin: 0px 0px 0px 4px&quot;&gt;&lt;span&gt;+ update()&lt;/span&gt;&lt;br&gt;&lt;/p&gt;&lt;p style=&quot;margin: 0px 0px 0px 4px&quot;&gt;&lt;span&gt;-toggleLed()&lt;/span&gt;&lt;br&gt;&lt;/p&gt;" style="verticalAlign=top;align=left;overflow=fill;fontSize=12;fontFamily=Helvetica;html=1;fontStyle=1" parent="1" vertex="1">
                    <mxGeometry x="40" y="320" width="320" height="220" as="geometry"/>
                </mxCell>
                <mxCell id="23" value="&lt;p style=&quot;margin: 0px ; margin-top: 4px ; text-align: center&quot;&gt;&lt;b&gt;Potentimeter&lt;/b&gt;&lt;/p&gt;&lt;hr size=&quot;1&quot;&gt;&lt;p style=&quot;margin: 0px ; margin-left: 4px&quot;&gt;- pin: byte&lt;/p&gt;&lt;p style=&quot;margin: 0px ; margin-left: 4px&quot;&gt;- calib_min: unsigned int&lt;/p&gt;&lt;p style=&quot;margin: 0px ; margin-left: 4px&quot;&gt;- calib_max: unsigned int&lt;br&gt;&lt;/p&gt;&lt;hr size=&quot;1&quot;&gt;&lt;p style=&quot;margin: 0px ; margin-left: 4px&quot;&gt;+ Potentiometer(pin, min, max)&lt;/p&gt;&lt;p style=&quot;margin: 0px 0px 0px 4px&quot;&gt;&lt;br&gt;&lt;/p&gt;&lt;p style=&quot;margin: 0px 0px 0px 4px&quot;&gt;+ readRaw()&lt;/p&gt;&lt;p style=&quot;margin: 0px 0px 0px 4px&quot;&gt;+ readVoltage()&lt;br&gt;&lt;/p&gt;&lt;p style=&quot;margin: 0px 0px 0px 4px&quot;&gt;+ readPercentage()&lt;br&gt;&lt;/p&gt;&lt;p style=&quot;margin: 0px 0px 0px 4px&quot;&gt;&lt;br&gt;&lt;/p&gt;&lt;p style=&quot;margin: 0px 0px 0px 4px&quot;&gt;&lt;br&gt;&lt;/p&gt;" style="verticalAlign=top;align=left;overflow=fill;fontSize=12;fontFamily=Helvetica;html=1;" parent="1" vertex="1">
                    <mxGeometry x="600" y="320" width="190" height="170" as="geometry"/>
                </mxCell>
                <mxCell id="24" value="&lt;p style=&quot;margin: 0px ; margin-top: 4px ; text-align: center&quot;&gt;&lt;span&gt;TrafficLight&lt;/span&gt;&lt;/p&gt;&lt;hr size=&quot;1&quot;&gt;&lt;p style=&quot;margin: 0px ; margin-left: 4px&quot;&gt;- led: Led&lt;/p&gt;&lt;p style=&quot;margin: 0px ; margin-left: 4px&quot;&gt;- potentiometer: Potentiometer&lt;br&gt;&lt;/p&gt;&lt;p style=&quot;margin: 0px ; margin-left: 4px&quot;&gt;- button: PushButton&lt;br&gt;&lt;/p&gt;&lt;p style=&quot;margin: 0px ; margin-left: 4px&quot;&gt;&lt;br&gt;&lt;/p&gt;&lt;hr size=&quot;1&quot;&gt;&lt;p style=&quot;margin: 0px ; margin-left: 4px&quot;&gt;+ TrafficLight()&lt;br&gt;&lt;/p&gt;&lt;p style=&quot;margin: 0px ; margin-left: 4px&quot;&gt;+ TrafficLight(Led &amp;amp;led, Potentiometer &amp;amp;potentiometer, PushButton &amp;amp;button)&lt;/p&gt;&lt;p style=&quot;margin: 0px ; margin-left: 4px&quot;&gt;&lt;br&gt;&lt;/p&gt;&lt;p style=&quot;margin: 0px 0px 0px 4px&quot;&gt;&lt;span&gt;+ init()&lt;/span&gt;&lt;br&gt;&lt;/p&gt;&lt;p style=&quot;margin: 0px 0px 0px 4px&quot;&gt;&lt;span&gt;+ update()&lt;/span&gt;&lt;br&gt;&lt;/p&gt;&lt;p style=&quot;margin: 0px 0px 0px 4px&quot;&gt;&lt;span&gt;&lt;br&gt;&lt;/span&gt;&lt;/p&gt;&lt;p style=&quot;margin: 0px 0px 0px 4px&quot;&gt;&lt;br&gt;&lt;/p&gt;" style="verticalAlign=top;align=left;overflow=fill;fontSize=12;fontFamily=Helvetica;html=1;fontStyle=1" parent="1" vertex="1">
                    <mxGeometry x="240" y="40" width="460" height="200" as="geometry"/>
                </mxCell>
            </root>
        </mxGraphModel>
    </diagram>
</mxfile>